<svg xmlns="http://www.w3.org/2000/svg" xmlns:xlink="http://www.w3.org/1999/xlink" width="500" zoomAndPan="magnify" viewBox="0 0 375 374.999991" height="500" preserveAspectRatio="xMidYMid meet" version="1.0"><defs><g/><clipPath id="id1"><path d="M 214 101 L 244 101 L 244 234.03125 L 214 234.03125 Z M 214 101 " clip-rule="nonzero"/></clipPath><clipPath id="id2"><path d="M 256 19.53125 L 286 19.53125 L 286 182 L 256 182 Z M 256 19.53125 " clip-rule="nonzero"/></clipPath></defs><path fill="#c0392b" d="M 89.269531 144.488281 L 118.429688 151.847656 L 118.429688 78.394531 L 89.269531 71.035156 Z M 89.269531 144.488281 " fill-opacity="1" fill-rule="nonzero"/><path fill="#2ecc71" d="M 130.953125 122.414062 L 160.113281 129.773438 L 160.113281 48.960938 L 130.953125 41.605469 Z M 130.953125 122.414062 " fill-opacity="1" fill-rule="nonzero"/><path fill="#c0392b" d="M 172.703125 172.546875 L 201.863281 179.90625 L 201.863281 84.316406 L 172.703125 76.957031 Z M 172.703125 172.546875 " fill-opacity="1" fill-rule="nonzero"/><g clip-path="url(#id1)"><path fill="#c0392b" d="M 214.449219 226.734375 L 243.613281 234.09375 L 243.613281 109.070312 L 214.449219 101.714844 Z M 214.449219 226.734375 " fill-opacity="1" fill-rule="nonzero"/></g><g clip-path="url(#id2)"><path fill="#2ecc71" d="M 256.136719 19.46875 L 256.136719 173.921875 L 285.296875 181.277344 L 285.296875 26.824219 Z M 256.136719 19.46875 " fill-opacity="1" fill-rule="nonzero"/></g><g fill="#000000" fill-opacity="1"><g transform="translate(0.73038, 316.838284)"><g><path d="M 19.21875 -31.875 L 19.21875 -9.84375 C 19.21875 -6.65625 18.335938 -4.175781 16.578125 -2.40625 C 14.816406 -0.644531 12.390625 0.234375 9.296875 0.234375 C 5.523438 0.234375 2.394531 -1.300781 -0.09375 -4.375 L 2.453125 -8.46875 C 4.609375 -6.132812 6.875 -4.96875 9.25 -4.96875 C 10.707031 -4.96875 11.828125 -5.398438 12.609375 -6.265625 C 13.398438 -7.128906 13.796875 -8.378906 13.796875 -10.015625 L 13.796875 -27.0625 L 2.78125 -27.0625 L 2.78125 -31.875 Z M 19.21875 -31.875 "/></g></g></g><g fill="#000000" fill-opacity="1"><g transform="translate(33.613767, 316.838284)"><g><path d="M 18.40625 0 L 12.84375 0 L 0.140625 -31.875 L 5.921875 -31.875 L 15.765625 -5.96875 L 25.6875 -31.875 L 31.296875 -31.875 Z M 18.40625 0 "/></g></g></g><g fill="#000000" fill-opacity="1"><g transform="translate(75.195779, 316.838284)"><g/></g></g><g fill="#000000" fill-opacity="1"><g transform="translate(97.103375, 316.838284)"><g><path d="M 26.96875 -27.0625 L 9.5625 -27.0625 L 9.5625 -18.453125 L 25.140625 -18.453125 L 25.140625 -13.625 L 9.5625 -13.625 L 9.5625 -4.828125 L 27.515625 -4.828125 L 27.515625 0 L 4.1875 0 L 4.1875 -31.875 L 26.96875 -31.875 Z M 26.96875 -27.0625 "/></g></g></g><g fill="#000000" fill-opacity="1"><g transform="translate(137.136945, 316.838284)"><g><path d="M 18.953125 -16.578125 L 30.5625 0 L 24.140625 0 L 15.53125 -12.03125 L 6.96875 0 L 0.6875 0 L 12.296875 -16.34375 L 1.5 -31.875 L 7.75 -31.875 L 15.53125 -20.8125 L 23.359375 -31.875 L 29.65625 -31.875 Z M 18.953125 -16.578125 "/></g></g></g><g fill="#000000" fill-opacity="1"><g transform="translate(178.810045, 316.838284)"><g><path d="M 4.1875 -31.875 L 16.890625 -31.875 C 20.898438 -31.875 24.003906 -30.925781 26.203125 -29.03125 C 28.410156 -27.132812 29.515625 -24.457031 29.515625 -21 C 29.515625 -17.382812 28.410156 -14.582031 26.203125 -12.59375 C 24.003906 -10.601562 20.898438 -9.609375 16.890625 -9.609375 L 9.5625 -9.609375 L 9.5625 0 L 4.1875 0 Z M 9.5625 -27.0625 L 9.5625 -14.4375 L 16.671875 -14.4375 C 21.804688 -14.4375 24.375 -16.578125 24.375 -20.859375 C 24.375 -24.992188 21.804688 -27.0625 16.671875 -27.0625 Z M 9.5625 -27.0625 "/></g></g></g><g fill="#000000" fill-opacity="1"><g transform="translate(219.617825, 316.838284)"><g><path d="M 26.96875 -27.0625 L 9.5625 -27.0625 L 9.5625 -18.453125 L 25.140625 -18.453125 L 25.140625 -13.625 L 9.5625 -13.625 L 9.5625 -4.828125 L 27.515625 -4.828125 L 27.515625 0 L 4.1875 0 L 4.1875 -31.875 L 26.96875 -31.875 Z M 26.96875 -27.0625 "/></g></g></g><g fill="#000000" fill-opacity="1"><g transform="translate(259.651405, 316.838284)"><g><path d="M 31.84375 0 L 26.546875 0 L 9.5625 -22.859375 L 9.5625 0 L 4.1875 0 L 4.1875 -31.875 L 9.46875 -31.875 L 26.546875 -8.96875 L 26.546875 -31.875 L 31.84375 -31.875 Z M 31.84375 0 "/></g></g></g><g fill="#000000" fill-opacity="1"><g transform="translate(305.878794, 316.838284)"><g><path d="M 14.671875 -32.109375 C 18.796875 -32.109375 22.515625 -31.015625 25.828125 -28.828125 L 23.59375 -24.09375 C 20.34375 -26.070312 17.226562 -27.0625 14.25 -27.0625 C 12.644531 -27.0625 11.378906 -26.769531 10.453125 -26.1875 C 9.523438 -25.613281 9.0625 -24.796875 9.0625 -23.734375 C 9.0625 -22.671875 9.484375 -21.765625 10.328125 -21.015625 C 11.179688 -20.273438 12.242188 -19.726562 13.515625 -19.375 C 14.796875 -19.03125 16.179688 -18.59375 17.671875 -18.0625 C 19.160156 -17.53125 20.539062 -16.96875 21.8125 -16.375 C 23.09375 -15.78125 24.148438 -14.851562 24.984375 -13.59375 C 25.816406 -12.332031 26.234375 -10.804688 26.234375 -9.015625 C 26.234375 -6.222656 25.117188 -3.988281 22.890625 -2.3125 C 20.660156 -0.644531 17.765625 0.1875 14.203125 0.1875 C 11.773438 0.1875 9.421875 -0.265625 7.140625 -1.171875 C 4.867188 -2.085938 2.882812 -3.320312 1.1875 -4.875 L 3.5 -9.515625 C 5.113281 -8.023438 6.882812 -6.878906 8.8125 -6.078125 C 10.738281 -5.273438 12.566406 -4.875 14.296875 -4.875 C 16.179688 -4.875 17.644531 -5.210938 18.6875 -5.890625 C 19.738281 -6.578125 20.265625 -7.53125 20.265625 -8.75 C 20.265625 -9.84375 19.835938 -10.757812 18.984375 -11.5 C 18.140625 -12.238281 17.078125 -12.78125 15.796875 -13.125 C 14.523438 -13.476562 13.144531 -13.90625 11.65625 -14.40625 C 10.164062 -14.914062 8.785156 -15.453125 7.515625 -16.015625 C 6.242188 -16.578125 5.179688 -17.476562 4.328125 -18.71875 C 3.472656 -19.96875 3.046875 -21.472656 3.046875 -23.234375 C 3.046875 -25.929688 4.109375 -28.082031 6.234375 -29.6875 C 8.359375 -31.300781 11.171875 -32.109375 14.671875 -32.109375 Z M 14.671875 -32.109375 "/></g></g></g><g fill="#000000" fill-opacity="1"><g transform="translate(344.363933, 316.838284)"><g><path d="M 26.96875 -27.0625 L 9.5625 -27.0625 L 9.5625 -18.453125 L 25.140625 -18.453125 L 25.140625 -13.625 L 9.5625 -13.625 L 9.5625 -4.828125 L 27.515625 -4.828125 L 27.515625 0 L 4.1875 0 L 4.1875 -31.875 L 26.96875 -31.875 Z M 26.96875 -27.0625 "/></g></g></g><g fill="#000000" fill-opacity="1"><g transform="translate(126.231627, 351.939281)"><g><path d="M 11.03125 -11.484375 L 6.734375 -11.484375 L 6.734375 0 L 4.453125 0 L 4.453125 -11.484375 L 0.171875 -11.484375 L 0.171875 -13.546875 L 11.03125 -13.546875 Z M 11.03125 -11.484375 "/></g></g></g><g fill="#000000" fill-opacity="1"><g transform="translate(142.27041, 351.939281)"><g><path d="M 10.375 0 L 7.890625 -4.09375 C 7.765625 -4.082031 7.554688 -4.078125 7.265625 -4.078125 L 4.0625 -4.078125 L 4.0625 0 L 1.78125 0 L 1.78125 -13.546875 L 7.265625 -13.546875 C 8.992188 -13.546875 10.335938 -13.140625 11.296875 -12.328125 C 12.253906 -11.523438 12.734375 -10.390625 12.734375 -8.921875 C 12.734375 -7.835938 12.488281 -6.921875 12 -6.171875 C 11.519531 -5.421875 10.828125 -4.875 9.921875 -4.53125 L 12.953125 0 Z M 4.0625 -6.125 L 7.265625 -6.125 C 9.460938 -6.125 10.5625 -7.035156 10.5625 -8.859375 C 10.5625 -10.609375 9.460938 -11.484375 7.265625 -11.484375 L 4.0625 -11.484375 Z M 4.0625 -6.125 "/></g></g></g><g fill="#000000" fill-opacity="1"><g transform="translate(161.094812, 351.939281)"><g><path d="M 10.515625 -3.0625 L 3.6875 -3.0625 L 2.40625 0 L 0.015625 0 L 6 -13.546875 L 8.34375 -13.546875 L 14.25 0 L 11.8125 0 Z M 9.65625 -5.09375 L 7.09375 -11.109375 L 4.546875 -5.09375 Z M 9.65625 -5.09375 "/></g></g></g><g fill="#000000" fill-opacity="1"><g transform="translate(180.209397, 351.939281)"><g><path d="M 7.78125 -13.59375 C 8.726562 -13.59375 9.65625 -13.410156 10.5625 -13.046875 C 11.476562 -12.679688 12.265625 -12.171875 12.921875 -11.515625 L 11.59375 -9.84375 C 11.101562 -10.375 10.519531 -10.789062 9.84375 -11.09375 C 9.175781 -11.40625 8.5 -11.5625 7.8125 -11.5625 C 6.457031 -11.5625 5.3125 -11.097656 4.375 -10.171875 C 3.445312 -9.253906 2.984375 -8.132812 2.984375 -6.8125 C 2.984375 -5.46875 3.445312 -4.332031 4.375 -3.40625 C 5.3125 -2.488281 6.457031 -2.03125 7.8125 -2.03125 C 9.21875 -2.03125 10.476562 -2.566406 11.59375 -3.640625 L 12.9375 -2.125 C 12.238281 -1.445312 11.425781 -0.90625 10.5 -0.5 C 9.570312 -0.101562 8.640625 0.09375 7.703125 0.09375 C 5.710938 0.09375 4.039062 -0.566406 2.6875 -1.890625 C 1.332031 -3.210938 0.65625 -4.847656 0.65625 -6.796875 C 0.65625 -8.710938 1.34375 -10.320312 2.71875 -11.625 C 4.09375 -12.9375 5.78125 -13.59375 7.78125 -13.59375 Z M 7.78125 -13.59375 "/></g></g></g><g fill="#000000" fill-opacity="1"><g transform="translate(198.53085, 351.939281)"><g><path d="M 10.8125 0 L 6.359375 -5.984375 L 4.0625 -3.4375 L 4.0625 0 L 1.78125 0 L 1.78125 -13.546875 L 4.0625 -13.546875 L 4.0625 -6.53125 L 10.515625 -13.546875 L 13.21875 -13.546875 L 7.96875 -7.75 L 13.5625 0 Z M 10.8125 0 "/></g></g></g><g fill="#000000" fill-opacity="1"><g transform="translate(217.258545, 351.939281)"><g><path d="M 11.453125 -11.484375 L 4.0625 -11.484375 L 4.0625 -7.828125 L 10.671875 -7.828125 L 10.671875 -5.78125 L 4.0625 -5.78125 L 4.0625 -2.046875 L 11.6875 -2.046875 L 11.6875 0 L 1.78125 0 L 1.78125 -13.546875 L 11.453125 -13.546875 Z M 11.453125 -11.484375 "/></g></g></g><g fill="#000000" fill-opacity="1"><g transform="translate(234.786865, 351.939281)"><g><path d="M 10.375 0 L 7.890625 -4.09375 C 7.765625 -4.082031 7.554688 -4.078125 7.265625 -4.078125 L 4.0625 -4.078125 L 4.0625 0 L 1.78125 0 L 1.78125 -13.546875 L 7.265625 -13.546875 C 8.992188 -13.546875 10.335938 -13.140625 11.296875 -12.328125 C 12.253906 -11.523438 12.734375 -10.390625 12.734375 -8.921875 C 12.734375 -7.835938 12.488281 -6.921875 12 -6.171875 C 11.519531 -5.421875 10.828125 -4.875 9.921875 -4.53125 L 12.953125 0 Z M 4.0625 -6.125 L 7.265625 -6.125 C 9.460938 -6.125 10.5625 -7.035156 10.5625 -8.859375 C 10.5625 -10.609375 9.460938 -11.484375 7.265625 -11.484375 L 4.0625 -11.484375 Z M 4.0625 -6.125 "/></g></g></g></svg>